HIERARCHY
ROOT hip
{
	OFFSET 0.000000 0.000000 0.000000 
	CHANNELS 6 Xposition Yposition Zposition Xrotation Zrotation Yrotation
	JOINT abdomen
	{
		OFFSET 0.000000 3.402643 0.000000 
		CHANNELS 3 Xrotation Zrotation Yrotation
		JOINT chest
		{
			OFFSET 0.000000 8.438565 -0.680529 
			CHANNELS 3 Xrotation Zrotation Yrotation
			JOINT neck
			{
				OFFSET 0.000000 10.207942 -0.272212 
				CHANNELS 3 Xrotation Zrotation Yrotation
				JOINT head
				{
					OFFSET 0.000000 3.130431 0.000000 
					CHANNELS 3 Xrotation Zrotation Yrotation
					End Site
					{
						OFFSET 0.000000 3.130435 0.000000 
					}
				}
			}
			JOINT lCollar
			{
				OFFSET 3.470700 6.669187 -0.816635 
				CHANNELS 3 Yrotation Zrotation Xrotation
				JOINT lShldr
				{
					OFFSET 3.198488 0.000000 0.000000 
					CHANNELS 3 Zrotation Yrotation Xrotation
					JOINT lForeArm
					{
						OFFSET 10.139888 0.000000 0.000000 
						CHANNELS 3 Yrotation Zrotation Xrotation
						JOINT lHand
						{
							OFFSET 8.370511 0.000000 0.000000 
							CHANNELS 3 Zrotation Yrotation Xrotation
							End Site
							{
								OFFSET 4.083176 0.000000 0.000000 
							}
						}
					}
				}
			}
			JOINT rCollar
			{
				OFFSET -3.470700 6.669187 -0.816635 
				CHANNELS 3 Yrotation Zrotation Xrotation
				JOINT rShldr
				{
					OFFSET -3.198488 0.000000 0.000000 
					CHANNELS 3 Zrotation Yrotation Xrotation
					JOINT rForeArm
					{
						OFFSET -10.139888 0.000000 0.000000 
						CHANNELS 3 Yrotation Zrotation Xrotation
						JOINT rHand
						{
							OFFSET -8.370511 0.000000 0.000000 
							CHANNELS 3 Zrotation Yrotation Xrotation
							End Site
							{
								OFFSET -4.083176 0.000000 0.000000 
							}
						}
					}
				}
			}
		}
	}
	JOINT lThigh
	{
		OFFSET 5.308129 -1.633274 1.361059 
		CHANNELS 3 Xrotation Zrotation Yrotation
		JOINT lShin
		{
			OFFSET -2.041588 -20.007561 0.000000 
			CHANNELS 3 Xrotation Zrotation Yrotation
			JOINT lFoot
			{
				OFFSET 0.000000 -19.190928 -1.224953 
				CHANNELS 3 Xrotation Yrotation Zrotation
				End Site
				{
					OFFSET 0.000000 -2.449906 4.627600 
				}
			}
		}
	}
	JOINT rThigh
	{
		OFFSET -5.308129 -1.633274 1.361059 
		CHANNELS 3 Xrotation Zrotation Yrotation
		JOINT rShin
		{
			OFFSET 2.041588 -20.007561 0.000000 
			CHANNELS 3 Xrotation Zrotation Yrotation
			JOINT rFoot
			{
				OFFSET 0.000000 -19.190928 -1.224953 
				CHANNELS 3 Xrotation Yrotation Zrotation
				End Site
				{
					OFFSET 0.000000 -2.449906 4.627600 
				}
			}
		}
	}
}
MOTION
Frames: 19
Frame Time: 0.016667
9.807631 43.104645 -8.766890 35.314178 -4.203278 -20.316650 -8.734041 -8.698364 -8.884425 21.744225 -7.035448 -5.394892 -23.309624 -3.570341 13.948538 -0.068360 -0.107422 5.390753 1.993405 -2.003458 -0.008156 22.540033 -108.390175 -56.244431 -21.041908 -0.015313 -1.020840 -0.051938 0.007146 42.968750 -2.003062 1.991579 -0.506922 57.484390 10.353624 -44.240475 13.524924 -0.237269 -0.485311 0.039063 0.000000 49.960941 -61.441452 7.011614 -7.386781 68.676094 -0.142438 4.558290 -23.861866 1.913478 1.149025 -71.018944 17.790756 -0.399387 38.486065 -1.281358 -3.369094 2.193784 12.408106 0.418325 
10.891513 42.989353 -8.700479 34.834564 -1.819854 -24.049536 -8.997921 -8.576402 -7.583378 21.445368 -6.758328 -4.815810 -23.936993 -5.537324 14.347152 -0.136724 -0.517577 5.411392 1.993405 -2.003458 -0.008156 17.365919 -102.759148 -60.433109 -18.708178 0.023390 -1.012815 -0.055821 -0.006817 45.732418 -2.003062 1.991579 -0.506922 56.945816 16.607567 -32.773903 15.927163 -0.219840 -0.485659 0.045579 -0.014563 41.787109 -62.931149 5.879693 -13.093781 69.968529 -0.195731 4.573091 -22.399868 3.345943 2.020715 -72.035744 16.325678 2.476976 44.015438 -1.155454 -3.673467 -1.693722 6.381003 0.755804 
11.989538 42.672123 -8.587292 33.986008 0.526338 -28.649010 -9.355274 -8.645027 -5.877806 21.064310 -7.031385 -4.056802 -24.048979 -7.866493 14.920048 0.048837 -1.103515 5.457856 1.993405 -2.003458 -0.008156 10.900681 -96.499931 -61.570953 -16.413525 0.063277 -1.009604 -0.048828 0.000000 48.134766 -2.003062 1.991579 -0.506922 56.233120 22.629690 -22.507034 19.637943 -0.183147 -0.484188 0.046646 -0.032472 33.769539 -64.306046 5.791100 -17.214685 71.534859 -0.253107 4.583652 -20.694260 1.516820 1.353323 -72.906967 15.135942 4.468831 49.924397 -0.958629 -3.911089 -3.412463 2.089889 0.516070 
13.070432 42.140076 -8.426976 32.630157 3.052399 -33.711033 -9.697858 -8.896567 -3.935389 20.641474 -7.655539 -3.185778 -23.958143 -9.970210 15.316746 0.312621 -1.591773 5.420735 1.993405 -2.003458 -0.008156 -69.729637 -90.737358 11.456001 -13.767434 0.104285 -1.000023 -0.054474 -0.011998 52.099609 -2.003062 1.991579 -0.506922 55.124390 28.542875 -15.001889 24.295937 -0.137739 -0.494978 0.050557 -0.051703 28.066412 -65.604088 6.191520 -19.593769 73.317863 -0.351339 4.606073 -19.817810 -2.278934 0.012520 -73.552208 13.827737 6.205564 56.090977 -0.647248 -4.180325 -4.383920 -1.142140 0.205096 
14.122404 41.393955 -8.212082 30.733337 5.841016 -38.821751 -10.085092 -9.300016 -1.919197 20.129820 -8.443730 -2.290785 -24.099642 -12.060699 15.689578 0.527718 -2.158112 5.282507 1.993405 -2.003458 -0.008156 17.839941 -83.940208 -84.843269 -10.789375 0.159536 -0.993583 -0.051336 -0.025615 58.359383 -2.003062 1.991579 -0.506922 53.388149 34.266392 -10.024760 29.559458 -0.091663 -0.498131 0.049425 -0.062043 24.824224 -66.965202 6.642536 -20.335356 74.943336 -0.428991 4.607098 -19.600935 -6.207035 -1.289090 -74.053909 12.115158 8.090171 62.148464 -0.279423 -4.382885 -5.011981 -3.039501 -0.033300 
15.137988 40.439392 -7.922786 28.573938 8.612407 -43.794395 -10.540909 -9.632751 0.112874 19.499411 -9.206176 -1.348372 -24.297094 -14.318352 16.106928 0.733336 -2.861094 5.089905 1.993405 -2.003458 -0.008156 8.659525 -78.399422 -80.391815 -8.153058 0.202050 -0.997079 -0.059644 -0.033400 60.751972 -2.003062 1.991579 -0.506922 50.881485 39.694305 -7.110122 34.998783 -0.049669 -0.513611 0.066998 -0.071858 23.105484 -68.761337 7.111238 -20.068743 76.698738 -0.566396 4.636131 -20.002970 -9.470206 -2.370288 -74.497177 10.047265 9.966088 67.961441 0.081952 -4.571164 -5.276551 -3.163761 -0.136787 
16.115936 39.256874 -7.554051 26.582497 11.125861 -48.320946 -10.979362 -9.705388 2.068090 18.995214 -9.910299 -0.403730 -24.291992 -16.721153 16.577280 1.066631 -3.661477 4.872798 1.993405 -2.003458 -0.008156 0.991594 -73.173607 -77.653328 -6.288125 0.237440 -0.995646 -0.059247 -0.036616 62.050808 -2.003062 1.991579 -0.506922 47.528107 44.797825 -5.922156 40.448029 0.000343 -0.526437 0.072089 -0.063398 21.962898 -71.425575 7.609329 -19.447052 78.690445 -0.723473 4.679491 -20.856871 -11.977775 -3.221517 -75.176956 7.466762 11.197200 73.590576 0.520294 -4.718149 -5.324890 -1.904544 -0.102543 
17.044243 37.867165 -7.119584 24.803701 13.518166 -52.203289 -11.346058 -9.702957 3.800782 18.739294 -10.751257 0.460731 -23.927132 -18.866234 16.904676 1.537642 -4.353907 4.628928 1.993405 -2.003458 -0.008156 -5.712650 -67.938263 -75.843590 -5.165253 0.256785 -0.996595 -0.059034 -0.037016 61.718769 -2.003062 1.991579 -0.506922 43.542114 49.684765 -6.253964 45.809456 0.047428 -0.553152 0.069689 -0.072947 20.976570 -74.726868 8.136767 -18.508392 80.751907 -0.907034 4.720040 -22.260723 -13.839385 -4.021227 -76.074768 4.098368 11.601128 79.193222 0.968190 -4.851817 -5.691696 -0.369010 -0.065496 
17.906527 36.354172 -6.652092 23.011156 15.673064 -55.552776 -11.646482 -9.788572 5.326278 18.590483 -11.801645 1.230047 -23.264326 -20.264660 16.955065 2.047945 -4.713798 4.391945 1.993405 -2.003458 -0.008156 -11.622611 -62.589558 -74.380684 -4.501292 0.264690 -0.997972 -0.059438 -0.033765 60.400410 -2.003062 1.991579 -0.506922 39.466320 54.477333 -7.606729 50.780338 0.080373 -0.577268 0.070648 -0.073308 20.224621 -78.184990 8.810078 -17.034348 83.393486 -1.161508 4.761343 -23.979639 -15.730083 -4.947566 -76.823318 -0.166760 11.327812 84.584396 1.445734 -4.948520 -6.016539 0.375013 -0.047896 
18.701662 34.798168 -6.177586 21.258844 17.213737 -58.353706 -11.864708 -9.790538 6.634299 18.404274 -12.819910 1.919193 -22.341097 -20.962914 16.779663 2.499041 -4.809896 4.243369 1.993405 -2.003458 -0.008156 -17.372147 -57.232620 -72.650978 -4.218132 0.269494 -0.998551 -0.060044 -0.030089 59.101574 -2.003062 1.991579 -0.506922 35.351879 59.204319 -9.619749 55.204418 0.109140 -0.602001 0.071287 -0.073540 19.726572 -81.513481 9.726583 -15.183700 87.098366 -1.533204 4.815315 -24.419172 -18.629223 -6.007154 -76.665283 -5.303341 10.202754 89.616577 1.894436 -5.008770 -5.937308 -0.005285 -0.108864 
19.425900 33.134377 -5.698603 19.746565 18.025316 -60.416595 -11.964001 -9.519190 7.602548 18.241825 -13.577747 2.508971 -21.405178 -21.478346 16.670591 2.881408 -4.847409 4.208657 1.993405 -2.003458 -0.008156 -23.423531 -51.780361 -70.421852 -4.462239 0.273746 -0.997394 -0.060846 -0.026024 57.792976 -2.003062 1.991579 -0.506922 31.176767 63.971313 -12.062800 59.159805 0.134311 -0.624988 0.071525 -0.073625 19.541025 -84.803368 10.830176 -13.210103 92.188271 -2.127593 4.884725 -23.019020 -22.378529 -6.577301 -75.487160 -11.278937 8.057485 93.828377 2.303099 -5.019540 -6.301544 -0.970422 -0.259787 
20.055235 31.281641 -5.216519 18.388874 18.454279 -61.890053 -11.967239 -9.040853 8.205788 18.114559 -13.876752 2.925863 -20.939701 -21.902683 16.794750 3.028373 -4.837018 4.304216 1.993405 -2.003458 -0.008156 -29.583578 -45.891281 -68.071877 -5.389827 0.250968 -0.996497 -0.061394 -0.022263 55.253910 -2.003062 1.991579 -0.506922 27.090647 68.940323 -14.559134 62.753906 0.156164 -0.644579 0.071099 -0.073473 19.873055 -88.266113 12.207149 -10.844110 98.088257 -2.840605 4.943352 -21.991611 -24.695568 -6.591301 -73.406700 -17.792944 5.168406 96.940842 2.587456 -5.028351 -10.404365 -2.121567 -0.579186 
20.591660 29.325377 -4.726132 17.285437 18.787174 -63.121597 -11.993988 -8.341925 8.591313 18.070805 -13.581214 3.214970 -21.122499 -22.120176 17.218529 2.890673 -4.720575 4.526732 1.993405 -2.003458 -0.008156 -35.648956 -39.324272 -65.924545 -7.088777 0.222257 -0.995843 -0.056356 -0.006221 50.429691 -2.003062 1.991579 -0.506922 23.361692 74.194946 -16.742495 66.025803 0.179612 -0.668296 0.070112 -0.073108 20.644539 -91.693756 14.052179 -8.454937 103.770325 -3.555510 4.993029 -22.384069 -25.947252 -6.936901 -70.930664 -24.011702 1.987345 98.394684 2.665334 -4.970773 -20.347553 -3.664211 -1.569608 
21.096951 27.598057 -4.185730 16.713671 18.972719 -64.266289 -12.650777 -7.558336 10.069458 17.505087 -12.742713 6.058487 -21.705925 -22.235298 17.938717 2.655023 -4.594693 4.855425 1.993405 -2.003458 -0.008156 -41.160851 -32.274284 -64.287781 -9.227099 0.182148 -0.999377 -0.058594 0.000000 43.857422 -2.003062 1.991579 -0.506922 19.822292 79.428497 -18.793266 69.278191 0.200903 -0.696670 0.072685 -0.063635 21.425789 -94.647964 16.552790 -6.669194 108.621735 -4.257760 4.940940 -22.993111 -27.816198 -7.515934 -68.346016 -28.582451 -1.257401 97.856758 2.528567 -4.937974 -32.583282 -6.247490 -4.098193 
21.547728 25.855232 -3.636360 16.644730 18.601341 -65.322212 -12.534317 -6.550491 10.290161 17.620468 -11.949428 6.128826 -22.513391 -22.213049 18.875027 2.400071 -4.527291 5.249716 1.993405 -2.003458 -0.008156 -45.472225 -25.835558 -63.653297 -10.496455 0.164056 -0.992607 -0.056454 0.015483 37.558594 -2.003062 1.991579 -0.506922 14.368428 84.206459 -22.839201 72.764954 0.213482 -0.721112 0.072381 -0.063515 21.699226 -97.467384 19.745722 -5.897955 113.446465 -4.935501 4.910999 -23.014505 -31.280561 -7.862257 -66.789055 -32.222153 -4.014045 97.872597 2.459429 -4.924577 -40.343437 -9.108725 -7.325297 
21.965736 24.198437 -3.106799 16.970095 17.290136 -66.232887 -12.183682 -5.394042 10.478593 17.830467 -10.871743 6.225258 -23.566578 -21.579020 19.660139 2.037076 -4.333208 5.626973 1.993405 -2.003458 -0.008156 -49.192833 -20.219311 -63.554001 -11.619316 0.145216 -0.997066 -0.057435 0.033133 31.982435 -2.003062 1.991579 -0.506922 -15.457831 88.020462 -51.208115 76.398331 0.231200 -0.747886 0.072587 -0.063597 21.513680 -99.485153 23.650869 -5.719398 118.073097 -5.560562 4.815596 -23.807585 -35.082951 -8.413583 -66.336464 -35.721741 -6.043279 100.195908 2.634951 -4.888139 -42.691250 -9.054546 -7.454981 
22.357618 22.618164 -2.591992 17.770157 14.726254 -66.806465 -11.523003 -4.028738 10.487921 18.149668 -9.530396 6.287039 -24.615042 -20.279873 20.163773 1.615116 -3.924227 5.953481 1.993405 -2.003458 -0.008156 -52.493309 -15.379858 -65.127686 -12.839813 0.118815 -1.004593 -0.055218 0.043121 27.978529 -2.003062 1.991579 -0.506922 67.395638 92.456627 33.012341 79.973145 0.246924 -0.779491 0.072587 -0.063597 21.513680 -100.652969 28.447021 -5.908033 122.589737 -6.243387 4.706861 -28.188715 -38.283028 -11.075200 -66.102364 -39.208080 -7.639002 104.141144 2.977142 -4.833791 -42.406792 -4.544644 -3.537841 
22.713612 21.129427 -2.047637 19.004988 11.003519 -67.116028 -10.723016 -2.475591 10.410031 18.500835 -8.081498 6.388105 -25.364714 -18.593109 20.313330 1.154292 -3.329404 6.260624 1.993405 -2.003458 -0.008156 -55.696671 -10.925868 -66.114166 -14.685251 0.091952 -1.005650 -0.074360 0.053763 23.427750 -2.003062 1.991579 -0.506922 54.227768 94.064110 20.848713 83.586998 0.257714 -0.806366 0.071917 -0.063328 22.119150 -100.619286 34.236256 -6.146988 127.118454 -6.939394 4.580807 -37.081844 -40.797878 -16.872610 -64.458633 -41.958920 -9.686972 107.896584 3.339190 -4.741506 -41.503674 0.112546 0.148428 
23.018961 19.715464 -1.469334 20.137083 6.779884 -67.295563 -9.972151 -0.971430 10.297723 18.867109 -6.527382 6.456935 -25.511084 -16.395325 20.004608 0.742878 -2.470496 6.569148 1.993405 -2.003458 -0.008156 -58.615551 -6.752373 -65.984642 -17.028706 0.052579 -1.005247 -0.073428 0.074273 18.066427 -2.003062 1.991579 -0.506922 60.663090 93.808731 27.835474 87.445137 0.272042 -0.838338 0.067415 -0.072035 22.773457 -100.082764 40.447041 -6.701136 131.528595 -7.680765 4.423938 -46.941292 -43.539021 -24.055033 -61.072929 -44.158680 -12.143076 110.695488 3.553864 -4.687725 -40.408867 3.214364 2.294053 
